<svg xmlns="http://www.w3.org/2000/svg" width="165.991" height="124.472"><path data-name="Path 310" d="M62.655 124.472a.737.737 0 1 1 0-1.473 24.25 24.25 0 1 0 0-48.5.737.737 0 1 1 0-1.473 25.722 25.722 0 0 1 0 51.444z" fill="#345e41"/><path d="M39.839 49.02a.737.737 0 0 1-.734-.683 34.37 34.37 0 0 1-.088-2.507 33.008 33.008 0 0 1 4.041-16.043.737.737 0 1 1 1.287.716A31.534 31.534 0 0 0 40.49 45.83c0 .823.028 1.63.084 2.4a.737.737 0 0 1-.681.789zM62.654 74.502a20.688 20.688 0 0 1-12.93-4.664.737.737 0 1 1 .916-1.153 19.231 19.231 0 0 0 12.014 4.344.737.737 0 0 1 0 1.473zM47.65 51.317a.736.736 0 0 1-.688-.473 23.144 23.144 0 0 1-1.586-8.3 25.182 25.182 0 0 1 3.539-12.886.737.737 0 0 1 1.266.754 23.707 23.707 0 0 0-3.332 12.132 21.664 21.664 0 0 0 1.488 7.776.737.737 0 0 1-.424.952.728.728 0 0 1-.263.045zM73.325 69.678c-6.985 0-14.169-3.185-19.711-8.739a.737.737 0 0 1 1.043-1.041c5.267 5.279 12.072 8.307 18.668 8.307a.737.737 0 0 1 0 1.473z" fill="#345e41"/><path d="M46.158 31c-.83 0-1.68-.041-2.527-.121-8.08-.786-13.943-5.146-13.943-10.366a7.288 7.288 0 0 1 1.211-3.975 7.749 7.749 0 0 1-2.45-5.506c0-4.961 5.268-9 11.744-9a13.862 13.862 0 0 1 7.819 2.278C50.634 1.598 54.84-.002 59.421-.002c5.366 0 10.186 2.214 12.536 5.7a7.742 7.742 0 0 1 3.732-.958 8.134 8.134 0 0 1 7.986 8.256 8.34 8.34 0 0 1-3.1 6.524 6.029 6.029 0 0 1 .092 1.041 7.068 7.068 0 0 1-2.427 5.136.737.737 0 0 1-1.013-1.07 5.638 5.638 0 0 0 1.967-4.067 4.751 4.751 0 0 0-.151-1.165.736.736 0 0 1 .29-.784 6.848 6.848 0 0 0 2.866-5.616 6.659 6.659 0 0 0-6.513-6.783 6.3 6.3 0 0 0-3.559 1.1.726.726 0 0 1-.583.109.736.736 0 0 1-.474-.357c-1.91-3.4-6.484-5.6-11.653-5.6-4.368 0-8.486 1.648-10.748 4.3a.737.737 0 0 1-1.013.1 12.17 12.17 0 0 0-7.466-2.37c-5.663 0-10.271 3.375-10.271 7.525a6.466 6.466 0 0 0 2.428 4.843.736.736 0 0 1 .108 1 6.034 6.034 0 0 0-1.3 3.641c0 4.374 5.422 8.2 12.611 8.9a24.71 24.71 0 0 0 5.677-.107 17.97 17.97 0 0 0 8.67-3.383.734.734 0 0 1 .843-.052 16.136 16.136 0 0 0 8.312 2.13 17.749 17.749 0 0 0 5.808-.951.737.737 0 1 1 .488 1.39 19.224 19.224 0 0 1-6.3 1.034 17.886 17.886 0 0 1-8.642-2.09 19.821 19.821 0 0 1-8.985 3.381 26.017 26.017 0 0 1-3.479.245zM151.983 74.433c-5.9 0-9.646-2.981-11.373-5.75a3.966 3.966 0 0 1-.629.962c-1.217 1.374-3.459 1.972-6.685 1.779-6.506-.385-11.183-3.629-11.119-7.711a5.16 5.16 0 0 1 .079-.812 7.081 7.081 0 0 1-2.482-5.521 6.915 6.915 0 0 1 6.773-6.886h.1a6.564 6.564 0 0 1 3.053.805c2-2.781 5.942-4.542 10.289-4.542h.252a13.418 13.418 0 0 1 9.452 3.7 11.663 11.663 0 0 1 6.314-1.761h.2a11.547 11.547 0 0 1 6.884 2.268 6.827 6.827 0 0 1 2.892 5.5 6.549 6.549 0 0 1-2.075 4.568 6.167 6.167 0 0 1 .924 3.3c-.087 5.63-3.534 8.965-10.247 9.911a18.759 18.759 0 0 1-2.602.19zm-11.01-8.738c.3 2.454 3.941 7.265 11.005 7.265a17.259 17.259 0 0 0 2.4-.174c5.967-.841 8.9-3.613 8.979-8.475a4.9 4.9 0 0 0-1.01-2.971.737.737 0 0 1 .124-.995 5.258 5.258 0 0 0 2.037-3.906 5.394 5.394 0 0 0-2.321-4.308 10.075 10.075 0 0 0-6-1.959h-.182a9.965 9.965 0 0 0-5.985 1.855.737.737 0 0 1-1.011-.119c-1.826-2.209-5.195-3.617-8.793-3.673h-.229c-4.155 0-7.856 1.745-9.428 4.446a.737.737 0 0 1-1.061.232 5.116 5.116 0 0 0-2.876-.941h-.081a5.436 5.436 0 0 0-5.3 5.436 5.586 5.586 0 0 0 2.263 4.61.737.737 0 0 1 .277.789 3.778 3.778 0 0 0-.137.932c-.05 3.213 4.135 5.887 9.734 6.219 2.738.164 4.6-.273 5.495-1.286a3.4 3.4 0 0 0 .636-2.8.8.8 0 0 1-.005-.091.737.737 0 0 1 1.468-.087zM17.711 76.096c-9.083 0-16.473-4.705-16.473-10.489a7.3 7.3 0 0 1 1.212-3.974 7.754 7.754 0 0 1-2.449-5.507c0-4.962 5.268-9 11.743-9a13.863 13.863 0 0 1 7.821 2.28c2.622-2.712 6.828-4.312 11.408-4.312 5.367 0 10.186 2.213 12.536 5.7a7.751 7.751 0 0 1 3.731-.956 8.132 8.132 0 0 1 7.986 8.254 8.354 8.354 0 0 1-3.1 6.526 6.035 6.035 0 0 1 .091 1.04c0 4.913-6.009 8.912-13.395 8.912a17.9 17.9 0 0 1-8.64-2.088 21.348 21.348 0 0 1-12.471 3.614zm-5.968-27.5c-5.663 0-10.27 3.376-10.27 7.526a6.473 6.473 0 0 0 2.428 4.845.736.736 0 0 1 .108 1 6.041 6.041 0 0 0-1.3 3.64c0 4.971 6.729 9.016 15 9.016 4.72 0 9.079-1.313 11.959-3.6a.737.737 0 0 1 .842-.053 16.144 16.144 0 0 0 8.311 2.129c6.574 0 11.922-3.337 11.922-7.438a4.7 4.7 0 0 0-.15-1.162.736.736 0 0 1 .289-.784 6.864 6.864 0 0 0 2.867-5.62 6.658 6.658 0 0 0-6.513-6.781 6.306 6.306 0 0 0-3.558 1.1.736.736 0 0 1-1.056-.248c-1.91-3.4-6.484-5.595-11.653-5.595-4.367 0-8.485 1.648-10.748 4.3a.737.737 0 0 1-1.013.1 12.167 12.167 0 0 0-7.465-2.371zM102.054 100.504a.737.737 0 0 1-.729-.64 29.557 29.557 0 0 1-.252-3.859c0-.415.007-.827.028-1.235a.745.745 0 0 1 .774-.7.736.736 0 0 1 .7.774c-.02.382-.027.768-.027 1.158a28.063 28.063 0 0 0 .24 3.666.737.737 0 0 1-.633.827.725.725 0 0 1-.101.009zM128.702 124.472a27.4 27.4 0 0 1-24.817-15.942.737.737 0 0 1 1.33-.633 25.943 25.943 0 0 0 23.487 15.1.737.737 0 0 1 0 1.473zM103.79 107.208a.738.738 0 0 1-.685-.465 28.7 28.7 0 0 1-1.489-5.094.737.737 0 0 1 1.446-.281 27.216 27.216 0 0 0 1.412 4.831.736.736 0 0 1-.413.956.726.726 0 0 1-.271.053z" fill="#345e41"/><path d="M103.478 87.101a.749.749 0 0 1-.249-.043.737.737 0 0 1-.444-.942c.191-.53.379-1.011.575-1.468a27.748 27.748 0 0 1 22.4-16.952.736.736 0 1 1 .16 1.464 26.277 26.277 0 0 0-21.205 16.064c-.186.435-.364.887-.544 1.389a.736.736 0 0 1-.693.488zM101.959 93.803h-.076a.736.736 0 0 1-.658-.807 28.932 28.932 0 0 1 .983-5.089.737.737 0 0 1 1.415.41 27.466 27.466 0 0 0-.933 4.829.736.736 0 0 1-.731.657zM106.522 68.648a.736.736 0 0 1-.086-1.468c6.5-.77 12.112-2.715 15.806-5.474a.737.737 0 0 1 .882 1.181c-3.9 2.912-9.763 4.957-16.514 5.757a.673.673 0 0 1-.088.004z" fill="#345e41"/><path d="M106.524 69.677h-33.2a.737.737 0 0 1-.737-.737v-45.9a.737.737 0 0 1 .737-.737h.431a.736.736 0 0 1 .306 1.406v44.5h31.726V40.93a.737.737 0 0 1 1.473 0v28.01a.737.737 0 0 1-.736.737z" fill="#345e41"/><path d="M114.1 45.802a.727.727 0 0 1-.353-.091L68.519 20.957a.737.737 0 0 1 .708-1.292l45.227 24.754a.736.736 0 0 1-.355 1.382zM82.984 45.802a5.363 5.363 0 1 1 5.364-5.364 5.37 5.37 0 0 1-5.364 5.364zm0-9.254a3.89 3.89 0 1 0 3.891 3.89 3.895 3.895 0 0 0-3.891-3.89zM82.984 64.381a5.363 5.363 0 1 1 5.364-5.364 5.37 5.37 0 0 1-5.364 5.364zm0-9.254a3.89 3.89 0 1 0 3.891 3.89 3.895 3.895 0 0 0-3.891-3.89zM102.649 69.677h-8.791a.737.737 0 0 1-.737-.737V48.305a.737.737 0 0 1 .737-.737h8.791a.737.737 0 0 1 .737.737v20.636a.737.737 0 0 1-.737.736zm-8.055-1.473h7.318V49.041h-7.318zM105.309 75.441H91.197a.737.737 0 0 1-.737-.737v-1.742a.737.737 0 0 1 .737-.737h14.112a.736.736 0 0 1 .737.737v1.742a.737.737 0 0 1-.737.737zm-13.376-1.473h12.639v-.269H91.933zM105.309 82.143H91.197a.737.737 0 0 1-.737-.737v-1.743a.737.737 0 0 1 .737-.737h14.112a.737.737 0 0 1 .737.737v1.743a.737.737 0 0 1-.737.737zM91.933 80.67h12.639v-.27H91.933zM105.309 88.844H91.197a.737.737 0 0 1-.737-.737v-1.742a.737.737 0 0 1 .737-.737h14.112a.737.737 0 0 1 .737.737v1.742a.737.737 0 0 1-.737.737zm-13.376-1.473h12.639v-.269H91.933zM105.309 95.545H91.197a.737.737 0 0 1-.737-.737v-1.741a.737.737 0 0 1 .737-.737h14.112a.737.737 0 0 1 .737.737v1.742a.737.737 0 0 1-.737.736zm-13.376-1.473h12.639v-.269H91.933zM105.309 102.242H91.197a.737.737 0 0 1-.737-.737v-1.742a.737.737 0 0 1 .737-.737h14.112a.737.737 0 0 1 .737.737v1.742a.737.737 0 0 1-.737.737zm-13.376-1.473h12.639v-.269H91.933zM105.309 108.948H91.197a.737.737 0 0 1-.737-.737v-1.742a.737.737 0 0 1 .737-.737h14.112a.737.737 0 0 1 .737.737v1.742a.737.737 0 0 1-.737.737zm-13.376-1.473h12.639v-.269H91.933zM105.309 115.65H91.197a.737.737 0 0 1-.737-.737v-1.743a.737.737 0 0 1 .737-.737h14.112a.737.737 0 0 1 .737.737v1.743a.737.737 0 0 1-.737.737zm-13.376-1.473h12.639v-.27H91.933zM105.309 122.351H91.197a.737.737 0 0 1-.737-.737v-1.742a.737.737 0 0 1 .737-.737h14.112a.737.737 0 0 1 .737.737v1.742a.737.737 0 0 1-.737.737zm-13.376-1.473h12.639v-.269H91.933z" fill="#345e41"/><path d="M104.036 80.4a.737.737 0 0 1-.737-.737v-4.958a.737.737 0 0 1 1.473 0v4.958a.737.737 0 0 1-.736.737zM104.036 93.802a.737.737 0 0 1-.737-.737v-4.959a.737.737 0 0 1 1.473 0v4.959a.737.737 0 0 1-.736.737zM104.036 107.208a.737.737 0 0 1-.737-.737v-4.963a.737.737 0 0 1 1.473 0v4.963a.737.737 0 0 1-.736.737zM104.036 120.609a.737.737 0 0 1-.737-.737v-4.958a.737.737 0 0 1 1.473 0v4.959a.737.737 0 0 1-.736.736zM104.036 113.908a.737.737 0 0 1-.737-.737v-4.958a.737.737 0 0 1 1.473 0v4.958a.736.736 0 0 1-.736.737zM104.036 100.503a.737.737 0 0 1-.737-.737v-4.959a.737.737 0 0 1 1.473 0v4.959a.737.737 0 0 1-.736.737zM104.036 87.101a.737.737 0 0 1-.737-.737v-4.958a.737.737 0 0 1 1.473 0v4.958a.736.736 0 0 1-.736.737zM104.036 73.7a.737.737 0 0 1-.737-.737v-4.021a.737.737 0 0 1 1.473 0v4.022a.736.736 0 0 1-.736.736zM92.47 80.4a.737.737 0 0 1-.737-.737v-4.958a.737.737 0 0 1 1.473 0v4.958a.737.737 0 0 1-.736.737zM92.47 93.802a.737.737 0 0 1-.737-.737v-4.959a.737.737 0 0 1 1.473 0v4.959a.737.737 0 0 1-.736.737zM92.47 107.208a.737.737 0 0 1-.737-.737v-4.963a.737.737 0 0 1 1.473 0v4.963a.737.737 0 0 1-.736.737zM92.47 120.609a.737.737 0 0 1-.737-.737v-4.958a.737.737 0 0 1 1.473 0v4.959a.737.737 0 0 1-.736.736zM92.47 113.908a.737.737 0 0 1-.737-.737v-4.958a.737.737 0 0 1 1.473 0v4.958a.736.736 0 0 1-.736.737zM92.47 100.503a.737.737 0 0 1-.737-.737v-4.959a.737.737 0 0 1 1.473 0v4.959a.737.737 0 0 1-.736.737zM92.47 87.101a.737.737 0 0 1-.737-.737v-4.958a.737.737 0 0 1 1.473 0v4.958a.736.736 0 0 1-.736.737zM92.47 73.7a.737.737 0 0 1-.737-.737v-4.021a.737.737 0 0 1 1.473 0v4.022a.736.736 0 0 1-.736.736z" fill="#345e41"/><g><path d="M84.711 87.744a.737.737 0 0 1-.65-.39 24.308 24.308 0 0 0-9.293-9.616.737.737 0 0 1-.1-1.206 6.565 6.565 0 0 1 4.217-1.561c4.023 0 7.3 3.8 7.3 8.479a9.514 9.514 0 0 1-.794 3.853.736.736 0 0 1-.647.44zm-8.217-10.68a25.773 25.773 0 0 1 8.03 8.141 8.367 8.367 0 0 0 .183-1.754c0-3.863-2.611-7.006-5.822-7.006a4.959 4.959 0 0 0-2.387.619z" fill="#345e41"/></g><g><path d="M85.895 90.294h-.053a.737.737 0 0 1-.632-.464A24.237 24.237 0 0 0 69.55 75.5a.737.737 0 0 1-.326-1.214 10.677 10.677 0 0 1 7.773-3.439c6.212 0 11.265 5.586 11.265 12.452a13.374 13.374 0 0 1-1.728 6.625.737.737 0 0 1-.639.37zm-14.722-15.82a25.7 25.7 0 0 1 14.188 12.187q.3.555.569 1.131a12.066 12.066 0 0 0 .858-4.495c0-6.054-4.393-10.979-9.792-10.979a9.07 9.07 0 0 0-5.823 2.156z" fill="#345e41"/></g><g><path d="M115.168 72.77h-.009a.737.737 0 0 1-.728-.746c.03-2.388 2.462-4.332 5.422-4.332a6.377 6.377 0 0 1 2.92.686.736.736 0 0 1-.677 1.308 4.9 4.9 0 0 0-2.243-.521c-2.158 0-3.929 1.291-3.949 2.877a.736.736 0 0 1-.736.728z" fill="#345e41"/></g><g><path d="M110.405 76.421a.736.736 0 0 1-.625-.344 5.621 5.621 0 0 1-.9-3.026c0-4.052 4.611-7.348 10.28-7.348a13.059 13.059 0 0 1 6.293 1.525 9.765 9.765 0 0 1 1.545 1.053.737.737 0 0 1-.95 1.126 8.271 8.271 0 0 0-1.309-.891 11.752 11.752 0 0 0-5.58-1.341c-4.855 0-8.806 2.635-8.806 5.874a4.171 4.171 0 0 0 .675 2.242.737.737 0 0 1-.623 1.128z" fill="#345e41"/></g><g><path d="M40.849 21.129a.736.736 0 0 1-.663-.416 3.763 3.763 0 0 1 .231-3.5 6.679 6.679 0 0 1 2.978-2.719c2.778-1.341 5.859-.733 6.867 1.355a.737.737 0 0 1-1.327.641c-.644-1.334-2.888-1.64-4.9-.67a5.208 5.208 0 0 0-2.326 2.1 2.34 2.34 0 0 0-.2 2.155.737.737 0 0 1-.663 1.057z" fill="#345e41"/></g><g><path d="M49.46 16.618a.736.736 0 0 1-.664-.416 3.828 3.828 0 0 1-.148-2.99 4.02 4.02 0 0 1 5.038-2.433 3.826 3.826 0 0 1 2.25 1.974.737.737 0 0 1-1.327.641 2.364 2.364 0 0 0-1.392-1.219 2.547 2.547 0 0 0-3.184 1.537 2.368 2.368 0 0 0 .088 1.848.736.736 0 0 1-.662 1.057z" fill="#345e41"/></g><g><path d="M40.152 64.862a3.567 3.567 0 0 1-2.58-.994.737.737 0 0 1 1.043-1.041c1.046 1.048 3.266.6 4.848-.976s2.033-3.8.987-4.847a.737.737 0 0 1 1.043-1.041c1.638 1.642 1.195 4.75-.989 6.93a6.356 6.356 0 0 1-4.352 1.969z" fill="#345e41"/></g><g><path d="M138.084 63.029a6.633 6.633 0 0 1-3.857-1.345c-2.487-1.825-3.394-4.831-2.022-6.7a.737.737 0 0 1 1.188.872c-.877 1.194-.1 3.32 1.705 4.642s4.064 1.429 4.94.234a.737.737 0 0 1 1.188.872 3.779 3.779 0 0 1-3.142 1.425z" fill="#345e41"/></g><g><path d="M35.957 69.778a3.84 3.84 0 0 1-2.731-1.121.737.737 0 0 1 1.043-1.041 2.493 2.493 0 0 0 3.527-3.52.737.737 0 0 1 1.043-1.041 3.934 3.934 0 0 1-.059 5.554 3.994 3.994 0 0 1-2.823 1.169z" fill="#345e41"/></g><g><path d="M155.062 68.575a3.824 3.824 0 0 1-2.73-1.127.737.737 0 0 1 1.043-1.041 2.388 2.388 0 0 0 1.715.694 2.515 2.515 0 0 0 1.756-.743 2.459 2.459 0 0 0 .056-3.471.737.737 0 0 1 1.043-1.041 3.934 3.934 0 0 1-.059 5.554 3.979 3.979 0 0 1-2.781 1.174z" fill="#345e41"/></g><g><path d="M84.373 41.868a.733.733 0 0 1-.488-.185l-4.343-3.841a.737.737 0 1 1 .976-1.1l4.343 3.841a.737.737 0 0 1-.488 1.288z" fill="#345e41"/></g><g><path d="M82.985 61.67a.731.731 0 0 1-.488-.185l-4.343-3.842a.736.736 0 1 1 .976-1.1l4.343 3.842a.736.736 0 0 1-.488 1.288z" fill="#345e41"/></g><g><path d="M82.984 44.158a.735.735 0 0 1-.476-.175l-2.694-2.289a.737.737 0 0 1 .954-1.123l2.694 2.289a.736.736 0 0 1-.477 1.3z" fill="#345e41"/></g><g><path d="M87.068 60.503a.737.737 0 0 1-.477-.175l-2.695-2.289a.737.737 0 0 1 .954-1.123l2.695 2.289a.737.737 0 0 1-.477 1.3z" fill="#345e41"/></g></svg>