<svg xmlns="http://www.w3.org/2000/svg" width="133.725" height="83.63"><g data-name="Group 419"><g data-name="Group 418"><path data-name="Path 406" d="M132.843 83.63H.853A.853.853 0 0 1 0 82.777V36.894a.853.853 0 0 1 .853-.853h131.99a.853.853 0 0 1 .853.853v45.884a.853.853 0 0 1-.853.852zM1.705 81.925H131.99V37.746H1.705z" fill="#345e41"/></g></g><g data-name="Group 421"><g data-name="Group 420"><path data-name="Path 407" d="M132.872 38.037H.977a.853.853 0 0 1-.6-1.456l23.235-23.235a.853.853 0 0 1 1.206 1.206l-21.78 21.78h127.776l-21.78-21.78a.853.853 0 0 1 1.206-1.206l23.235 23.238a.853.853 0 0 1-.6 1.456z" fill="#345e41"/></g></g><g data-name="Group 423"><g data-name="Group 422"><path data-name="Path 408" d="M24.211 14.801a.853.853 0 0 1-.25-1.669L66.673.032a.852.852 0 0 1 .5 0l42.713 13.1a.853.853 0 0 1-.5 1.632L66.921 1.745l-42.46 13.02a.867.867 0 0 1-.25.036z" fill="#345e41"/></g></g><g data-name="Group 425"><g data-name="Group 424"><path data-name="Path 409" d="M66.924 22.752a.853.853 0 0 1-.853-.853V.854a.853.853 0 0 1 1.705 0V21.9a.853.853 0 0 1-.852.852z" fill="#345e41"/></g></g><g data-name="Group 427"><g data-name="Group 426"><path data-name="Path 410" d="M66.922 22.751a.825.825 0 0 1-.157-.014l-42.713-7.95a.853.853 0 0 1 .312-1.677l42.713 7.951a.852.852 0 0 1-.155 1.691z" fill="#345e41"/></g></g><g data-name="Group 429"><g data-name="Group 428"><path data-name="Path 411" d="M66.923 22.751a.852.852 0 0 1-.155-1.691l42.713-7.951a.853.853 0 1 1 .311 1.677l-42.713 7.95a.827.827 0 0 1-.156.015z" fill="#345e41"/></g></g><g data-name="Group 431"><g data-name="Group 430"><path data-name="Path 412" d="M95.371 38.037a.852.852 0 0 1-.4-.1L66.52 22.649a.853.853 0 0 1 .807-1.5l28.448 15.285a.853.853 0 0 1-.4 1.6z" fill="#345e41"/></g></g><g data-name="Group 433"><g data-name="Group 432"><path data-name="Path 413" d="M38.358 37.965a.853.853 0 0 1-.4-1.6l28.448-15.284a.853.853 0 0 1 .807 1.5L38.765 37.865a.852.852 0 0 1-.407.1z" fill="#345e41"/></g></g><g data-name="Group 435"><g data-name="Group 434"><path data-name="Path 414" d="M95.371 38.037a.853.853 0 0 1-.726-1.3l14.265-23.235a.853.853 0 1 1 1.453.893L96.098 37.63a.852.852 0 0 1-.727.407z" fill="#345e41"/></g></g><g data-name="Group 437"><g data-name="Group 436"><path data-name="Path 415" d="M38.489 37.98a.854.854 0 0 1-.728-.406L23.496 14.338a.853.853 0 0 1 1.454-.893l14.263 23.236a.852.852 0 0 1-.726 1.3z" fill="#345e41"/></g></g><g data-name="Group 439"><g data-name="Group 438"><path data-name="Path 416" d="M73.348 83.63H60.042a.853.853 0 0 1-.853-.853V53.872a.852.852 0 0 1 .853-.853h13.306a.852.852 0 0 1 .853.853v28.907a.853.853 0 0 1-.853.851zm-12.453-1.705h11.6v-27.2h-11.6z" fill="#345e41"/></g></g><g data-name="Group 441"><g data-name="Group 440"><path data-name="Path 417" d="M115.105 69.177h-19.73a.853.853 0 0 1-.853-.853V52.496a.853.853 0 0 1 .853-.853h19.73a.853.853 0 0 1 .853.853v15.828a.852.852 0 0 1-.853.853zm-18.877-1.706h18.024V53.348H96.224z" fill="#345e41"/></g></g><g data-name="Group 458"><g data-name="Group 443"><g data-name="Group 442"><path data-name="Path 418" d="M120.302 73.349h-3.411a.853.853 0 0 1 0-1.706h2.558v-2.558a.853.853 0 1 1 1.705 0v3.411a.853.853 0 0 1-.852.853z" fill="#345e41"/></g></g><g data-name="Group 445"><g data-name="Group 444"><path data-name="Path 419" d="M109.121 73.348h-7.769a.853.853 0 0 1 0-1.705h7.769a.853.853 0 1 1 0 1.705z" fill="#345e41"/></g></g><g data-name="Group 447"><g data-name="Group 446"><path data-name="Path 420" d="M93.583 73.349h-3.411a.853.853 0 0 1-.853-.853v-3.411a.853.853 0 1 1 1.705 0v2.558h2.558a.853.853 0 0 1 0 1.706z" fill="#345e41"/></g></g><g data-name="Group 449"><g data-name="Group 448"><path data-name="Path 421" d="M90.172 64.154a.852.852 0 0 1-.853-.853v-5.788a.853.853 0 1 1 1.705 0v5.784a.853.853 0 0 1-.852.857z" fill="#345e41"/></g></g><g data-name="Group 451"><g data-name="Group 450"><path data-name="Path 422" d="M90.172 52.586a.853.853 0 0 1-.853-.853v-3.411a.853.853 0 0 1 .853-.853h3.411a.853.853 0 0 1 0 1.705h-2.558v2.558a.853.853 0 0 1-.853.854z" fill="#345e41"/></g></g><g data-name="Group 453"><g data-name="Group 452"><path data-name="Path 423" d="M109.121 49.176h-7.769a.853.853 0 0 1 0-1.705h7.769a.853.853 0 1 1 0 1.705z" fill="#345e41"/></g></g><g data-name="Group 455"><g data-name="Group 454"><path data-name="Path 424" d="M120.302 52.586a.853.853 0 0 1-.853-.853v-2.558h-2.558a.853.853 0 0 1 0-1.705h3.411a.853.853 0 0 1 .853.853v3.411a.853.853 0 0 1-.853.852z" fill="#345e41"/></g></g><g data-name="Group 457"><g data-name="Group 456"><path data-name="Path 425" d="M120.302 64.154a.853.853 0 0 1-.853-.853v-5.784a.853.853 0 1 1 1.705 0v5.784a.852.852 0 0 1-.852.853z" fill="#345e41"/></g></g></g><g data-name="Group 460"><g data-name="Group 459"><path data-name="Path 426" d="M38.218 69.177h-19.73a.852.852 0 0 1-.853-.853V52.496a.853.853 0 0 1 .853-.853h19.73a.853.853 0 0 1 .853.853v15.828a.853.853 0 0 1-.853.853zm-18.877-1.706h18.026V53.348H19.34z" fill="#345e41"/></g></g><g data-name="Group 477"><g data-name="Group 462"><g data-name="Group 461"><path data-name="Path 427" d="M43.418 73.349h-3.411a.853.853 0 0 1 0-1.706h2.558v-2.558a.853.853 0 1 1 1.705 0v3.411a.853.853 0 0 1-.852.853z" fill="#345e41"/></g></g><g data-name="Group 464"><g data-name="Group 463"><path data-name="Path 428" d="M32.237 73.348h-7.769a.853.853 0 1 1 0-1.705h7.769a.853.853 0 0 1 0 1.705z" fill="#345e41"/></g></g><g data-name="Group 466"><g data-name="Group 465"><path data-name="Path 429" d="M16.699 73.349h-3.411a.853.853 0 0 1-.853-.853v-3.411a.853.853 0 0 1 1.705 0v2.558h2.558a.853.853 0 0 1 0 1.706z" fill="#345e41"/></g></g><g data-name="Group 468"><g data-name="Group 467"><path data-name="Path 430" d="M13.288 64.154a.852.852 0 0 1-.853-.853v-5.788a.853.853 0 1 1 1.705 0v5.784a.853.853 0 0 1-.852.857z" fill="#345e41"/></g></g><g data-name="Group 470"><g data-name="Group 469"><path data-name="Path 431" d="M13.288 52.586a.853.853 0 0 1-.853-.853v-3.411a.853.853 0 0 1 .853-.853h3.411a.853.853 0 0 1 0 1.705h-2.558v2.558a.853.853 0 0 1-.853.854z" fill="#345e41"/></g></g><g data-name="Group 472"><g data-name="Group 471"><path data-name="Path 432" d="M32.237 49.176h-7.769a.853.853 0 0 1 0-1.705h7.769a.853.853 0 0 1 0 1.705z" fill="#345e41"/></g></g><g data-name="Group 474"><g data-name="Group 473"><path data-name="Path 433" d="M43.418 52.586a.853.853 0 0 1-.853-.853v-2.558h-2.558a.853.853 0 0 1 0-1.705h3.411a.853.853 0 0 1 .853.853v3.411a.853.853 0 0 1-.853.852z" fill="#345e41"/></g></g><g data-name="Group 476"><g data-name="Group 475"><path data-name="Path 434" d="M43.418 64.154a.852.852 0 0 1-.853-.853v-5.784a.853.853 0 1 1 1.705 0v5.784a.853.853 0 0 1-.852.853z" fill="#345e41"/></g></g></g></svg>