<svg xmlns="http://www.w3.org/2000/svg" width="133.725" height="118.627"><g data-name="Group 338"><g data-name="Group 337"><path data-name="Path 367" d="M124.392 116.187H9.423a.742.742 0 0 1-.742-.742V45.039a.742.742 0 0 1 .52-.708C41.326 34.25 66.177 11.52 66.424 11.291a.743.743 0 0 1 .981-.023c.29.243 29.313 24.422 57.206 33.062a.742.742 0 0 1 .523.709v70.407a.742.742 0 0 1-.742.741zm-114.226-1.485H123.65V45.583c-26-8.227-52.744-29.541-56.7-32.77-3.616 3.206-27.055 23.291-56.784 32.768z" fill="#345e41"/></g></g><g data-name="Group 340"><g data-name="Group 339"><path data-name="Path 368" d="M132.982 118.627a.742.742 0 0 1-.743-.743V38.832C102.154 29.497 71.167 5.139 66.907 1.716c-3.893 3.4-31 26.348-65.423 37.114v79.055a.743.743 0 1 1-1.485 0v-79.6a.742.742 0 0 1 .523-.709C37.513 26.166 66.102.454 66.386.196a.743.743 0 0 1 .972-.023c.334.275 33.734 27.626 65.84 37.4a.743.743 0 0 1 .526.71v79.6a.742.742 0 0 1-.742.744z" fill="#345e41"/></g></g><g data-name="Group 342"><g data-name="Group 341"><path data-name="Path 369" d="M9.424 45.78a.739.739 0 0 1-.455-.156L.287 38.869a.743.743 0 0 1 .912-1.172l8.677 6.758a.742.742 0 0 1-.456 1.329z" fill="#345e41"/></g></g><g data-name="Group 344"><g data-name="Group 343"><path data-name="Path 370" d="M16.558 43.202a.74.74 0 0 1-.455-.156l-8.682-6.755a.742.742 0 1 1 .911-1.172l8.683 6.755a.743.743 0 0 1-.456 1.329z" fill="#345e41"/></g></g><g data-name="Group 346"><g data-name="Group 345"><path data-name="Path 371" d="M26.044 39.025a.739.739 0 0 1-.472-.17l-8.007-6.607a.742.742 0 1 1 .945-1.145l8.007 6.607a.743.743 0 0 1-.473 1.315z" fill="#345e41"/></g></g><g data-name="Group 348"><g data-name="Group 347"><path data-name="Path 372" d="M35.492 34.505a.741.741 0 0 1-.455-.156l-8.065-6.275a.742.742 0 1 1 .911-1.172l8.065 6.275a.742.742 0 0 1-.456 1.328z" fill="#345e41"/></g></g><g data-name="Group 350"><g data-name="Group 349"><path data-name="Path 373" d="M44.482 29.12a.739.739 0 0 1-.455-.156l-7.882-6.132a.743.743 0 0 1 .912-1.173l7.882 6.133a.742.742 0 0 1-.456 1.329z" fill="#345e41"/></g></g><g data-name="Group 352"><g data-name="Group 351"><path data-name="Path 374" d="M51.937 23.928a.743.743 0 0 1-.454-.155L44.03 18a.742.742 0 1 1 .909-1.174l7.454 5.773a.742.742 0 0 1-.455 1.329z" fill="#345e41"/></g></g><g data-name="Group 354"><g data-name="Group 353"><path data-name="Path 375" d="M60.245 18.155a.74.74 0 0 1-.453-.154l-7.366-5.682a.743.743 0 0 1 .907-1.176l7.366 5.682a.742.742 0 0 1-.454 1.33z" fill="#345e41"/></g></g><g data-name="Group 356"><g data-name="Group 355"><path data-name="Path 376" d="M68.592 13.836a.74.74 0 0 1-.456-.156l-8.348-6.5a.743.743 0 0 1 .912-1.173l8.348 6.5a.743.743 0 0 1-.456 1.329z" fill="#345e41"/></g></g><g data-name="Group 358"><g data-name="Group 357"><path data-name="Path 377" d="M117.122 43.344a.742.742 0 0 1-.456-1.328l8.681-6.755a.743.743 0 1 1 .912 1.172l-8.681 6.755a.738.738 0 0 1-.456.156z" fill="#345e41"/></g></g><g data-name="Group 360"><g data-name="Group 359"><path data-name="Path 378" d="M124.258 45.779a.742.742 0 0 1-.456-1.329l8.682-6.755a.743.743 0 0 1 .912 1.172l-8.682 6.755a.739.739 0 0 1-.456.157z" fill="#345e41"/></g></g><g data-name="Group 362"><g data-name="Group 361"><path data-name="Path 379" d="M108.035 39.165a.742.742 0 0 1-.473-1.315l8.006-6.607a.743.743 0 0 1 .946 1.145l-8.007 6.607a.739.739 0 0 1-.472.17z" fill="#345e41"/></g></g><g data-name="Group 364"><g data-name="Group 363"><path data-name="Path 380" d="M98.586 34.245a.742.742 0 0 1-.456-1.329l8.065-6.275a.743.743 0 0 1 .912 1.172l-8.065 6.275a.739.739 0 0 1-.456.157z" fill="#345e41"/></g></g><g data-name="Group 366"><g data-name="Group 365"><path data-name="Path 381" d="M89.596 28.859a.743.743 0 0 1-.456-1.329l7.883-6.133a.742.742 0 0 1 .911 1.172l-7.882 6.133a.74.74 0 0 1-.456.157z" fill="#345e41"/></g></g><g data-name="Group 368"><g data-name="Group 367"><path data-name="Path 382" d="M82.143 23.668a.743.743 0 0 1-.455-1.33l7.453-5.773a.743.743 0 0 1 .91 1.174l-7.453 5.773a.738.738 0 0 1-.455.156z" fill="#345e41"/></g></g><g data-name="Group 370"><g data-name="Group 369"><path data-name="Path 383" d="M73.835 17.896a.742.742 0 0 1-.454-1.33l7.366-5.683a.743.743 0 0 1 .907 1.176l-7.366 5.683a.74.74 0 0 1-.453.154z" fill="#345e41"/></g></g><g data-name="Group 372"><g data-name="Group 371"><path data-name="Path 384" d="M65.486 13.977a.743.743 0 0 1-.456-1.329l8.349-6.5a.743.743 0 0 1 .912 1.172l-8.349 6.5a.739.739 0 0 1-.456.157z" fill="#345e41"/></g></g><g data-name="Group 374"><g data-name="Group 373"><path data-name="Path 385" d="M26.044 116.023a.743.743 0 0 1-.345-1.4c2.767-1.447 4.418-11.069.6-22.275a42.457 42.457 0 0 0-5.9-11.387 39.62 39.62 0 0 0-2.914-3.55 39.1 39.1 0 0 0-5.712-5.077.742.742 0 0 1 .228-1.313c27.272-7.977 40.648-23.673 47.067-35.436 6.946-12.728 7.465-23.672 7.469-23.781a.751.751 0 0 1 .772-.712.742.742 0 0 1 .712.772c-.019.459-.539 11.4-7.65 24.432-6.442 11.8-19.728 27.484-46.546 35.727a40.655 40.655 0 0 1 4.75 4.379 41.077 41.077 0 0 1 3.023 3.682 43.938 43.938 0 0 1 6.1 11.784c3.866 11.358 2.491 22.075-1.321 24.07a.74.74 0 0 1-.333.085z" fill="#345e41"/></g></g><g data-name="Group 376"><g data-name="Group 375"><path data-name="Path 386" d="M108.123 116.222a.74.74 0 0 1-.344-.085c-3.854-2.021-5.2-12.831-1.243-24.272a43.871 43.871 0 0 1 6.176-11.785 40.59 40.59 0 0 1 2.422-2.982 40.488 40.488 0 0 1 5.2-4.876c-26.817-8.243-40.1-23.921-46.543-35.725-7.109-13.029-7.629-23.971-7.648-24.43a.743.743 0 0 1 1.484-.06c0 .109.536 11.111 7.5 23.844 6.422 11.738 19.794 27.4 47.03 35.37a.743.743 0 0 1 .228 1.314 38.933 38.933 0 0 0-6.147 5.555c-.81.9-1.6 1.872-2.334 2.874a42.427 42.427 0 0 0-5.967 11.388c-3.909 11.293-2.271 21 .529 22.471a.743.743 0 0 1-.346 1.4z" fill="#345e41"/></g></g><g data-name="Group 378"><g data-name="Group 377"><path data-name="Path 387" d="M98.573 92.85H35.152a5.543 5.543 0 0 1-5.537-5.536v-.4c0-3.254 5.147-5.537 7.934-5.537h58.627c2.787 0 7.933 2.283 7.933 5.537v.4a5.543 5.543 0 0 1-5.536 5.536zm-61.024-9.988c-2.369 0-6.449 2-6.449 4.052v.4a4.056 4.056 0 0 0 4.052 4.052h63.421a4.056 4.056 0 0 0 4.052-4.052v-.4c0-2.05-4.08-4.052-6.448-4.052z" fill="#345e41"/></g></g><g data-name="Group 383"><g data-name="Group 380"><g data-name="Group 379"><path data-name="Path 388" d="M30.359 92.85h-3.352a.742.742 0 0 1-.7-.5 42.468 42.468 0 0 0-5.9-11.387 39.626 39.626 0 0 0-2.914-3.55.743.743 0 0 1-.2-.5v-2.977a.743.743 0 0 1 .742-.742h12.321a.743.743 0 0 1 .742.742v18.171a.742.742 0 0 1-.739.743zm-2.824-1.485h2.081V74.672H18.78v1.945a41.067 41.067 0 0 1 2.826 3.467 43.878 43.878 0 0 1 5.925 11.281z" fill="#345e41"/></g></g><g data-name="Group 382"><g data-name="Group 381"><path data-name="Path 389" d="M30.359 81.261h-9.357a.743.743 0 0 1 0-1.485h9.352a.743.743 0 0 1 0 1.485z" fill="#345e41"/></g></g></g><g data-name="Group 388"><g data-name="Group 385"><g data-name="Group 384"><path data-name="Path 390" d="M107.238 92.85h-3.871a.742.742 0 0 1-.742-.742V73.929a.743.743 0 0 1 .742-.742h12.321a.743.743 0 0 1 .742.742v3.664a.741.741 0 0 1-.19.5c-.81.9-1.595 1.871-2.334 2.874a42.427 42.427 0 0 0-5.967 11.388.742.742 0 0 1-.701.495zm-3.129-1.485h2.6a43.8 43.8 0 0 1 6-11.285 40.534 40.534 0 0 1 2.233-2.769v-2.639h-10.833z" fill="#345e41"/></g></g><g data-name="Group 387"><g data-name="Group 386"><path data-name="Path 391" d="M113.309 81.261h-9.943a.743.743 0 0 1 0-1.485h9.943a.743.743 0 1 1 0 1.485z" fill="#345e41"/></g></g></g><g data-name="Group 390"><g data-name="Group 389"><path data-name="Path 392" d="M58.559 82.861H43.235a.742.742 0 0 1-.714-.537c-.11-.383-2.669-9.428.086-13.786a.742.742 0 0 1 .474-.329c3.57-.757 12.526-.473 15.591-.008a.743.743 0 0 1 .57.438 12.829 12.829 0 0 1 .856 4.467.742.742 0 0 1-1.483.064 12.491 12.491 0 0 0-.585-3.558c-3.147-.392-10.919-.616-14.323-.012-1.816 3.342-.379 9.866.1 11.777H58.56a.743.743 0 0 1 0 1.485z" fill="#345e41"/></g></g><g data-name="Group 392"><g data-name="Group 391"><path data-name="Path 393" d="M91.03 82.862H75.704a.741.741 0 0 1-.713-.537c-.11-.383-2.667-9.426.086-13.786a.742.742 0 0 1 .474-.33 39.793 39.793 0 0 1 6.985-.471 69.566 69.566 0 0 1 8.606.463.743.743 0 0 1 .571.439c1.915 4.427.123 13.256.046 13.63a.742.742 0 0 1-.729.592zm-14.753-1.485h14.138c.349-1.956 1.325-8.278.084-11.765a73.354 73.354 0 0 0-7.963-.388 40.711 40.711 0 0 0-6.36.377c-1.814 3.345-.379 9.866.101 11.776z" fill="#345e41"/></g></g><g data-name="Group 394"><g data-name="Group 393"><path data-name="Path 394" d="M103.119 86.855H30.706a.743.743 0 0 1 0-1.485h72.412a.743.743 0 0 1 0 1.485z" fill="#345e41"/></g></g><g data-name="Group 396"><g data-name="Group 395"><path data-name="Path 395" d="M67.819 82.862a.787.787 0 0 1-.123-.01.742.742 0 0 1-.61-.855c.257-1.541.749-5.761.1-7.577-1.963-.766-7.956-1-11.377.048-.146 5.687 1.831 7 1.852 7.011a.751.751 0 0 1 .252 1.012.733.733 0 0 1-.991.275c-.3-.166-2.9-1.825-2.577-8.872a.742.742 0 0 1 .484-.662c3.9-1.446 11.227-1.07 13.268-.032a.744.744 0 0 1 .333.342c1.132 2.374.225 8.058.118 8.7a.742.742 0 0 1-.729.62z" fill="#345e41"/></g></g><g data-name="Group 398"><g data-name="Group 397"><path data-name="Path 396" d="M87.713 71.875a.742.742 0 0 1-.742-.742v-2.5a.743.743 0 1 1 1.485 0v2.5a.742.742 0 0 1-.743.742z" fill="#345e41"/></g></g><g data-name="Group 400"><g data-name="Group 399"><path data-name="Path 397" d="M89.438 70.624a.742.742 0 0 1-.742-.742v-1.126a.743.743 0 0 1 1.485 0v1.126a.742.742 0 0 1-.743.742z" fill="#345e41"/></g></g><g data-name="Group 402"><g data-name="Group 401"><path data-name="Path 398" d="M38.297 89.454h-7.591a.743.743 0 0 1 0-1.485h7.591a.743.743 0 0 1 0 1.485z" fill="#345e41"/></g></g><g data-name="Group 404"><g data-name="Group 403"><path data-name="Path 399" d="M35.493 91.671h-3.485a.743.743 0 1 1 0-1.485h3.486a.743.743 0 0 1 0 1.485z" fill="#345e41"/></g></g><g data-name="Group 406"><g data-name="Group 405"><path data-name="Path 400" d="M25.634 78.312h-2.871a.743.743 0 1 1 0-1.485h2.871a.743.743 0 1 1 0 1.485z" fill="#345e41"/></g></g><g data-name="Group 408"><g data-name="Group 407"><path data-name="Path 401" d="M110.963 78.312h-2.871a.743.743 0 1 1 0-1.485h2.871a.743.743 0 1 1 0 1.485z" fill="#345e41"/></g></g><g data-name="Group 410"><g data-name="Group 409"><path data-name="Path 402" d="M120.397 61.089c-13.444 0-24.324-7.446-31.464-21.532a.743.743 0 1 1 1.325-.671c6.87 13.554 17.292 20.718 30.139 20.718a.743.743 0 1 1 0 1.485z" fill="#345e41"/></g></g><g data-name="Group 412"><g data-name="Group 411"><path data-name="Path 403" d="M16.558 60.053a.743.743 0 0 1 0-1.485c14.434 0 30.365-14.25 35.634-27.039a.743.743 0 1 1 1.373.566c-5.448 13.228-21.986 27.958-37.007 27.958z" fill="#345e41"/></g></g><g data-name="Group 414"><g data-name="Group 413"><path data-name="Path 404" d="M19.509 93.579a.751.751 0 0 1-.165-.019.742.742 0 0 1-.56-.888c1.013-4.482-1.193-14.272-7.088-20.036a.743.743 0 1 1 1.039-1.062c6.508 6.364 8.564 16.708 7.5 21.426a.742.742 0 0 1-.726.579z" fill="#345e41"/></g></g><g data-name="Group 416"><g data-name="Group 415"><path data-name="Path 405" d="M114.659 93.578a.742.742 0 0 1-.723-.579c-1.067-4.718.989-15.063 7.5-21.426a.743.743 0 0 1 1.038 1.062c-5.894 5.764-8.1 15.554-7.088 20.037a.742.742 0 0 1-.56.888.753.753 0 0 1-.167.018z" fill="#345e41"/></g></g></svg>