<svg xmlns="http://www.w3.org/2000/svg" width="119.376" height="134.2"><path d="m119.237 132.999-8.208-16.576a.756.756 0 0 0-.264-.533L90.268 74.504a.755.755 0 0 0-.233-.47l-6.857-13.847a18.341 18.341 0 0 0-.369-.765l-.019-.02-19.209-38.79a.736.736 0 0 0-.056-.171l-2.924-6.1 6.348-13.248a.762.762 0 0 0-1.374-.659l-5.817 12.145L53.939.435a.762.762 0 0 0-1.374.659l6.348 13.248-.556 1.16-58.278 117.6a.762.762 0 0 0 .683 1.1h117.852a.762.762 0 0 0 .623-1.2Zm-33.94-.323H61.06c2.872-.983 8.527-3.647 8-9.275-.433-4.579-2.473-6.955-4.272-9.051a11.54 11.54 0 0 1-2.717-4.278c-.059-.291-.128-.587-.2-.892a.762.762 0 0 0-1.492.308 9.276 9.276 0 0 0 .212.947c1.04 5.027-.168 7.736-1.468 9.373a8.069 8.069 0 0 1-1.3-2.472.761.761 0 0 0-1.37-.439c-.435.577-1.25 1.735-2.06 3.007a11.461 11.461 0 0 1-.839-5.018.762.762 0 0 0-1.283-.628c-4.259 4.037-5.945 7.76-5.014 11.064 1.28 4.542 7.176 6.735 9.172 7.355H34.09l24.905-80.263v20.755a8.358 8.358 0 0 0-7.589 8.312v10.491a.762.762 0 0 0 1.524 0v-5.7a8.344 8.344 0 0 0 6.065 3.519v6.56a.762.762 0 1 0 1.524 0v-6.56a8.344 8.344 0 0 0 6.064-3.519v5.7a.762.762 0 0 0 1.524 0V81.479a8.358 8.358 0 0 0-7.588-8.312V52.824Zm-27.516-1.097a.732.732 0 0 0-.126-.1l-.057-.035c-.058-.031-5.709-3.263-3.72-7.564a22.577 22.577 0 0 1 1.11-2.055c.6-1.013 1.281-2.039 1.837-2.844a28.516 28.516 0 0 0 1.584 2.5c2.283 3.357 2.955 8.476.436 10.3a.758.758 0 0 0-.258.892h-.832c.008-.007.017-.009.024-.016a.762.762 0 0 0 0-1.078Zm-4.32-1.76c-2-1.05-4.133-2.668-4.757-4.954-.65-2.383.472-5.146 3.339-8.227a11.791 11.791 0 0 0 1.4 4.8c-.4.68-.716 1.286-.954 1.805a6.062 6.062 0 0 0 .972 6.579Zm6.537-8.686a10.21 10.21 0 0 0 2.509-7.137c.357.454.735.894 1.12 1.343 1.732 2.019 3.524 4.105 3.911 8.2.383 4.058-3.537 6.324-6.158 7.375 1.182-2.741.458-6.763-1.381-9.778Zm-46.83-11.012h5.039a.762.762 0 1 0 0-1.524h-4.284l.881-1.778h1.764a.762.762 0 0 0 0-1.524H15.56l.363-.733h3.211a.762.762 0 1 0 0-1.524h-2.455l2.253-4.546 17.024 17.024h-25.46Zm33.335-67.268h3.065a.762.762 0 1 0 0-1.524h-2.31l9.9-19.977a.756.756 0 0 0 .206-.251l1.557-3.251v18.671c-.014.013-.031.017-.044.031L40.094 55.787Zm35.076 72.7L69.368 76.21l29.864 21.686Zm-10.936-40.3 18.344.1 10.226 20.651Zm-.534-1.527 12.088-12.087 6.033 12.183Zm-1.663-.491-8-25.789v-8.747L81.46 60.218Zm-8.689 14.013-1.165-2.1 1.165-2.1 1.164 2.1Zm0-7.333-1.165-2.1 1.165-2.1 1.164 2.1Zm-2.7-1.727.742 1.336-1.337-.742a.761.761 0 0 0-.74 0l-2.675 1.485a6.836 6.836 0 0 1 5.495-5.495l-1.485 2.676a.76.76 0 0 0-.002.736Zm1.133 3.3-2.1 1.165-2.1-1.165 2.1-1.165Zm-2.468 2.7a.761.761 0 0 0 .74 0l1.337-.743-.742 1.336a.761.761 0 0 0 0 .74l1.486 2.675a6.835 6.835 0 0 1-5.5-5.495Zm6.739.594-.742-1.336 1.337.743a.76.76 0 0 0 .74 0l2.675-1.486a6.835 6.835 0 0 1-5.495 5.495l1.485-2.675a.761.761 0 0 0-.002-.744Zm-1.133-3.3 2.1-1.165 2.1 1.165-2.1 1.165Zm2.467-2.7a.76.76 0 0 0-.74 0l-1.337.742.742-1.336a.76.76 0 0 0 0-.74l-1.485-2.676a6.836 6.836 0 0 1 5.495 5.495Zm-17.09 8.106h-2.529a.762.762 0 0 0 0 1.524h2.056l-8.343 26.887-17.587-17.59 29.745-21.6Zm4.316-13.909L38.078 60.036 58.922 38.69v8.825Zm-13.715-11.56 12.122 12.122-18.176.1Zm-6.812 13.746 18.4-.1-28.67 20.82Zm70.07 23.562 8.409 16.981H83.581Zm-39.9-61.984a.753.753 0 0 0-.214-.146V17.709l5.674 11.458h-4.325a.762.762 0 0 0 0 1.524h5.08l.228.459h-2.539a.762.762 0 0 0 0 1.524h3.285l11.487 23.2Zm-50.92 80.3h27.608l-4.857 15.636h-30.5Zm77.149 15.636-.838-2.7h9.022a.762.762 0 0 0 0-1.524h-9.495l-.61-1.965h3.135a.762.762 0 0 0 0-1.524h-3.608l-2.4-7.737h27.628l7.651 15.449Z" fill="#345e41"/></svg>